Coordinates
version=1
nRows=12
nColumns=46
inDegrees=yes

Units are S.I. units (second, meters, Newtons, ...)
Angles are in degrees.

endheader
time	pelvis_tilt	pelvis_list	pelvis_rotation	pelvis_tx	pelvis_ty	pelvis_tz	bb_angle	bb_tx	bb_ty	bb_tz	hip_flexion_r	hip_adduction_r	hip_rotation_r	knee_angle_r	knee_angle_r_beta	ankle_angle_r	subtalar_angle_r	mtp_angle_r	crank_angle_r	hip_flexion_l	hip_adduction_l	hip_rotation_l	knee_angle_l	knee_angle_l_beta	ankle_angle_l	subtalar_angle_l	mtp_angle_l	crank_angle_l	lumbar_extension	lumbar_bending	lumbar_rotation	arm_flex_r	arm_add_r	arm_rot_r	elbow_flex_r	pro_sup_r	wrist_flex_r	wrist_dev_r	arm_flex_l	arm_add_l	arm_rot_l	elbow_flex_l	pro_sup_l	wrist_flex_l	wrist_dev_l
      7.50000000	    -11.74334463	    -10.17026924	     -3.86221678	      0.18404713	      1.05881455	     -0.26664485	      0.00000000	      0.50000000	      0.00000000	      0.25000000	     82.01718750	      4.00107066	      2.70936690	    107.25755527	      1.87199749	     16.58020272	      3.65037882	      0.00000000	      0.00000000	     36.58574092	    -15.02572619	     -0.87157391	     44.65369741	      0.77935404	    -12.18917830	     -8.14569601	      0.00000000	      0.00000000	    -67.62536346	     10.86215188	     13.64937664	     89.48928012	     -9.83425283	     24.32790472	     57.12858554	     39.85016128	      0.00000000	      0.00000000	     86.67450354	    -14.25803444	     27.35656793	     49.68018211	     38.76769639	      0.00000000	      0.00000000
      7.50500000	    -11.61019272	    -10.06293618	     -3.77292421	      0.18396781	      1.05998606	     -0.26589539	      0.00000000	      0.50000000	      0.00000000	      0.25000000	     81.22623581	      4.01528560	      2.53872122	    105.38757707	      1.83936021	     17.71599566	      3.07450913	      0.00000000	      0.00000000	     36.90363383	    -14.84640842	     -0.37028503	     46.63811499	      0.81398866	    -12.18454538	     -8.80745769	      0.00000000	      0.00000000	    -67.81359704	     10.63277025	     13.41957801	     89.47714015	     -9.86829733	     24.29076436	     57.19119747	     39.80192244	      0.00000000	      0.00000000	     86.72952893	    -14.19557790	     27.19206611	     49.77513635	     38.78793311	      0.00000000	      0.00000000
      7.51000000	    -11.61780458	    -10.37236216	     -3.51179587	      0.18389121	      1.06089750	     -0.26515588	      0.00000000	      0.50000000	      0.00000000	      0.25000000	     80.39883035	      3.96227254	      1.86869497	    103.29271571	      1.80279798	     18.69869986	      2.48684698	      0.00000000	      0.00000000	     37.62111773	    -14.94225691	      0.64117652	     48.87371225	      0.85300720	    -12.24340772	     -9.02254401	      0.00000000	      0.00000000	    -67.98179820	     10.85736381	     13.58272646	     89.48176535	     -9.80805075	     24.21670466	     57.37758404	     39.60834720	      0.00000000	      0.00000000	     86.60264261	    -14.02939224	     26.52682439	     50.02664512	     38.84786713	      0.00000000	      0.00000000
      7.51500000	    -11.39175080	    -10.09065393	     -3.42655588	      0.18395441	      1.06202978	     -0.26422749	      0.00000000	      0.50000000	      0.00000000	      0.25000000	     79.30171869	      3.81981769	      1.78309129	    101.18897180	      1.76608072	     19.75335580	      2.16140698	      0.00000000	      0.00000000	     37.90437025	    -14.58995507	      1.10099040	     51.00352450	      0.89017943	    -12.15493495	     -9.49107882	      0.00000000	      0.00000000	    -68.19381216	     10.38407537	     13.11351063	     89.45626353	     -9.86269480	     24.17445623	     57.37641714	     39.56469566	      0.00000000	      0.00000000	     86.73736921	    -13.88650493	     26.38534886	     50.11504143	     38.86311721	      0.00000000	      0.00000000
      7.52000000	    -11.11995198	     -9.93102642	     -3.20229387	      0.18418554	      1.06298346	     -0.26336568	      0.00000000	      0.50000000	      0.00000000	      0.25000000	     78.03557035	      3.70450982	      1.64047982	     98.99294545	      1.72775283	     20.85036448	      1.79783329	      0.00000000	      0.00000000	     38.26661898	    -14.25392882	      1.79113893	     53.25669665	      0.92950471	    -11.75510034	    -10.38396903	      0.00000000	      0.00000000	    -68.43124423	     10.14486476	     12.74403171	     89.45054563	     -9.87823493	     24.13179674	     57.35117119	     39.51585377	      0.00000000	      0.00000000	     86.87688819	    -13.78643500	     26.17821488	     50.22081307	     38.87619419	      0.00000000	      0.00000000
      7.52500000	    -10.82909854	     -9.97284654	     -2.68174240	      0.18429760	      1.06389664	     -0.26254985	      0.00000000	      0.50000000	      0.00000000	      0.25000000	     76.58611160	      3.36421351	      1.16991344	     96.62860296	      1.68648727	     21.92608944	      1.51115112	      0.00000000	      0.00000000	     38.79644337	    -13.94089076	      2.85470416	     55.62876476	      0.97090510	    -11.47431017	    -10.95679025	      0.00000000	      0.00000000	    -68.76167934	     10.32567276	     12.46045488	     89.45767300	     -9.70211963	     24.02379424	     57.26070880	     39.38511547	      0.00000000	      0.00000000	     86.92386136	    -13.71675593	     25.60081878	     50.41820808	     38.89580315	      0.00000000	      0.00000000
      7.53000000	    -10.56330925	     -9.53361594	     -2.50618303	      0.18457900	      1.06452821	     -0.26132757	      0.00000000	      0.50000000	      0.00000000	      0.25000000	     75.19964584	      3.15892963	      1.25209296	     94.25685215	      1.64509241	     22.76167104	      1.13391864	      0.00000000	      0.00000000	     39.18928461	    -13.43517129	      3.23267798	     57.98696930	      1.01206354	    -11.16400340	    -11.24290498	      0.00000000	      0.00000000	    -68.88096790	      9.80314885	     11.81729539	     89.43082529	     -9.71811573	     23.92834067	     57.19263468	     39.32512280	      0.00000000	      0.00000000	     87.02171719	    -13.56859976	     25.38485401	     50.55568086	     38.91428703	      0.00000000	      0.00000000
      7.53500000	    -10.31191418	     -9.48044096	     -2.13449918	      0.18477531	      1.06492946	     -0.26025425	      0.00000000	      0.50000000	      0.00000000	      0.25000000	     73.69351553	      2.90236688	      0.83638101	     91.70852938	      1.60061579	     23.43240702	      0.66224928	      0.00000000	      0.00000000	     39.82181950	    -13.16385464	      4.11442512	     60.57119781	      1.05716683	    -10.29167330	    -10.88580091	      0.00000000	      0.00000000	    -69.07102540	      9.76024949	     11.28878414	     89.43240304	     -9.10049270	     23.48372908	     56.69291017	     38.83824876	      0.00000000	      0.00000000	     86.80080077	    -13.38568407	     23.84016895	     51.14506965	     39.02289358	      0.00000000	      0.00000000
      7.54000000	    -10.03071819	     -8.98962467	     -1.82689643	      0.18520657	      1.06534558	     -0.25883819	      0.00000000	      0.50000000	      0.00000000	      0.25000000	     72.15718562	      2.50925581	      0.83590859	     89.21038762	      1.55701499	     24.04468668	      0.49869246	      0.00000000	      0.00000000	     40.28005216	    -12.55257179	      4.54838480	     62.99826354	      1.09952712	     -9.80945182	    -11.22715380	      0.00000000	      0.00000000	    -69.19675811	      9.24662859	     10.49236693	     89.38989709	     -9.18257542	     23.41783047	     56.59332615	     38.77825256	      0.00000000	      0.00000000	     86.96106455	    -13.27948105	     23.77384194	     51.26073233	     39.05302815	      0.00000000	      0.00000000
      7.54500000	     -9.64209420	     -8.74881253	     -1.44637491	      0.18542622	      1.06568497	     -0.25761775	      0.00000000	      0.50000000	      0.00000000	      0.25000000	     70.45394561	      2.12366346	      0.47609240	     86.56426930	      1.51083151	     24.41408415	      0.39036758	      0.00000000	      0.00000000	     40.75902962	    -12.14466017	      5.20048797	     65.54500556	      1.14397616	     -9.00925039	    -11.07669587	      0.00000000	      0.00000000	    -69.42662131	      8.99698933	      9.88916169	     89.39249782	     -9.10333858	     23.39620808	     56.31269823	     38.65103419	      0.00000000	      0.00000000	     87.04266171	    -13.26244204	     23.60180331	     51.46165820	     39.10858703	      0.00000000	      0.00000000
      7.55000000	     -9.31816849	     -8.30146034	     -1.13769700	      0.18566431	      1.06571392	     -0.25619887	      0.00000000	      0.50000000	      0.00000000	      0.25000000	     68.83352836	      1.72120371	      0.34238127	     83.91777499	      1.46464147	     24.54004231	      0.16835973	      0.00000000	      0.00000000	     41.28935893	    -11.59950219	      5.65192414	     68.11861451	      1.18889411	     -8.09111619	    -10.70888260	      0.00000000	      0.00000000	    -69.53993504	      8.53532819	      9.10546241	     89.36826300	     -9.06341440	     23.35506644	     55.97322369	     38.50120080	      0.00000000	      0.00000000	     87.15798521	    -13.23622013	     23.45463139	     51.74311453	     39.18616222	      0.00000000	      0.00000000
      7.55500000	     -9.02089056	     -7.66693365	     -0.90631648	      0.18581267	      1.06554787	     -0.25484568	      0.00000000	      0.50000000	      0.00000000	      0.25000000	     67.26387895	      1.24810364	      0.40536561	     81.33020078	      1.41947978	     24.52036171	      0.12440810	      0.00000000	      0.00000000	     41.80870258	    -10.89405665	      5.87144874	     70.62488086	      1.23263670	     -7.37672814	    -10.90235260	      0.00000000	      0.00000000	    -69.59773213	      7.85554584	      8.16929108	     89.31869293	     -9.22665764	     23.29900700	     55.82349383	     38.44461040	      0.00000000	      0.00000000	     87.37574091	    -13.12719808	     23.42550469	     51.88822692	     39.22024880	      0.00000000	      0.00000000
